<svg width="24" height="25" viewBox="0 0 24 25" fill="none" xmlns="http://www.w3.org/2000/svg">
<path fill-rule="evenodd" clip-rule="evenodd" d="M5 0.42C5 0.13 5.13 0 5.27 0H7.94C8.07 0 8.21 0.13 8.21 0.42V15.61L5.01 18.52V0.42H5ZM15.19 0.56C15.19 0.27 15.32 0 15.48 0H18.26C18.39 0 18.55 0.27 18.55 0.56V6.7H18.39V6.83H18.12V6.96H17.96V7.12H17.69V7.25L15.18 9.34V0.56H15.19ZM10.45 0H13.1C13.23 0 13.37 0.27 13.37 0.56V11.02L10.17 13.96V0.56C10.17 0.27 10.3 0 10.46 0H10.45Z" fill="#E78513"/>
<path fill-rule="evenodd" clip-rule="evenodd" d="M23.58 4.73984C23.58 4.31984 23.45 4.04984 23.16 3.75984C22.89 3.48984 22.47 3.33984 22.05 3.33984C21.49 3.33984 21.23 3.49984 20.8 3.75984L17.02 7.11984C16.62 6.82984 16.04 6.69984 15.48 6.69984C14.66 6.69984 13.94 6.96984 13.39 7.38984L0.42 18.8198C0.26 19.1098 0 19.3798 0 19.9298C0 20.2198 0.13 20.4898 0.27 21.0398C0.69 21.7498 1.4 22.3098 1.81 22.5798C2.37 23.2898 3.63 24.2698 4.88 24.2698C5.3 24.2698 5.72 24.1098 6.01 23.8498L18.98 12.2598C19.96 11.4398 20.09 10.1898 19.27 9.05984L23.16 5.71984C23.45 5.42984 23.58 5.15984 23.58 4.73984Z" fill="#EACA59"/>
<path fill-rule="evenodd" clip-rule="evenodd" d="M12.0248 17C12.8459 17 13.6235 17.2574 14.2711 17.7349C13.1464 18.1225 12.0651 18.6434 11.0736 19.245C9.99225 19.9395 8.9512 20.7581 8.08985 21.7101C8.04957 21.493 8 21.2326 8 21.0155C8 18.814 9.81875 17 12.0248 17ZM14.5345 17.9085C14.6243 17.9953 14.708 18.0822 14.8381 18.1659C14.8784 18.2093 14.9682 18.2961 15.0116 18.3829C13.7568 18.7736 12.6352 19.2915 11.5941 19.9829C10.3888 20.7178 9.29822 21.5829 8.34702 22.662C8.30674 22.5318 8.26336 22.3581 8.22308 22.2279C8.1828 22.1876 8.1828 22.1008 8.13323 22.0543C9.04415 21.0155 10.0852 20.1535 11.2502 19.462C12.251 18.814 13.3664 18.3364 14.5376 17.9054L14.5345 17.9085ZM15.182 18.5969C15.2719 18.6868 15.3122 18.7736 15.3555 18.8605C15.3958 18.9008 15.4454 18.9876 15.4857 19.0341C14.1905 19.4651 12.976 20.0264 11.8947 20.7209C10.7297 21.4093 9.68861 22.3209 8.73741 23.3132C8.69713 23.2264 8.60728 23.1395 8.5639 23.0558C8.52363 23.0124 8.52363 22.9659 8.47405 22.9256C9.43145 21.8465 10.5066 20.9349 11.7211 20.2C12.7622 19.5519 13.9272 18.9907 15.182 18.6V18.5969ZM15.6158 19.2915C15.6561 19.3783 15.6995 19.4651 15.7459 19.5488C15.9194 20.0233 16 20.5008 16 21.0186C16 23.2264 14.2277 25 12.0217 25C10.8071 25 9.77537 24.4822 9.03796 23.6574C8.99768 23.6171 8.9481 23.5705 8.90782 23.5302C9.81875 22.5349 10.8598 21.6698 12.0248 20.9318C13.1061 20.2434 14.3207 19.7225 15.6158 19.2915Z" fill="#EA3232"/>
</svg>
