<svg width="39" height="32" viewBox="0 0 39 32" fill="none" xmlns="http://www.w3.org/2000/svg">
<path fill-rule="evenodd" clip-rule="evenodd" d="M15.7867 26.7761C13.8468 28.522 11.9346 30.2402 10.1748 32C-5.70468 31.224 -4.34675 -8.97349 23.8927 1.84839C27.7725 5.13237 30.6685 8.81818 32.0264 13.0721C33.7862 14.6102 35.7261 15.5663 37.8461 15.9542C38.4004 16.3561 38.2202 16.7441 37.4443 17.132C36.0863 17.132 34.5483 16.9381 32.9686 16.9381C28.3406 17.908 23.8788 19.834 19.2508 19.6539C16.9367 19.2521 14.8167 19.6539 13.2371 20.804C12.8629 23.506 14.0407 25.2381 15.7589 26.79L15.7867 26.7761Z" fill="#C64040"/>
<path fill-rule="evenodd" clip-rule="evenodd" d="M18.1007 24.6431C18.8767 24.2551 19.8605 24.463 20.6226 24.8371C23.5186 27.553 26.6086 28.8693 29.9064 29.2712C32.2204 28.4952 33.9802 26.9571 35.1441 24.2413C34.9224 22.7032 33.6061 20.9573 33.2042 19.0312C27.9665 20.9573 22.5625 21.7471 17.3248 21.7471C16.7428 22.8972 17.1446 23.8671 18.1007 24.6293V24.6431Z" fill="white"/>
</svg>
