<svg width="27" height="28" viewBox="0 0 27 28" fill="none" xmlns="http://www.w3.org/2000/svg">
<path d="M10.7293 1.88679C10.606 1.21181 9.95149 0.771209 9.26854 0.893079L8.06387 1.10869C7.77931 0.349353 6.96356 -0.128752 6.12883 0.0306165C5.67352 0.114988 5.27513 0.368102 5.00954 0.75246C5.00954 0.761835 5.00005 0.771209 4.99057 0.780584C4.98108 0.780584 4.9716 0.761835 4.96211 0.75246C4.5732 0.489971 4.1179 0.386851 3.66259 0.480597C3.20729 0.564968 2.8089 0.818082 2.5433 1.20244C2.33462 1.49305 2.23977 1.83054 2.23977 2.18677L1.03511 2.40239C0.352149 2.52426 -0.103155 3.1711 0.0201563 3.8367L0.124497 4.38043C0.18141 4.70854 0.37112 4.98977 0.6462 5.17727C0.854882 5.31789 1.10151 5.39288 1.35761 5.39288C1.4335 5.39288 1.50938 5.39288 1.58527 5.37413L2.78993 5.15852C2.91324 5.48663 3.13141 5.76787 3.42546 5.97411C3.71951 6.18035 4.06099 6.27409 4.41195 6.27409C4.51629 6.27409 4.63012 6.26472 4.73446 6.24597C5.18976 6.1616 5.58816 5.90848 5.85375 5.52413C5.85375 5.51475 5.86323 5.50538 5.87272 5.496C5.88221 5.496 5.89169 5.51475 5.90118 5.52413C6.19523 5.73037 6.53671 5.82411 6.88767 5.82411C6.99201 5.82411 7.10584 5.81474 7.20069 5.79599C8.0449 5.646 8.62352 4.91478 8.62352 4.09919L9.82818 3.88357C10.1602 3.82733 10.4447 3.63983 10.6344 3.36797C10.8242 3.09611 10.9 2.768 10.8336 2.43989L10.7293 1.89616V1.88679ZM1.40504 4.4273C1.32916 4.44605 1.26276 4.4273 1.19636 4.38043C1.13945 4.33355 1.09202 4.27731 1.08253 4.20231L0.978194 3.65858C0.949737 3.50859 1.05408 3.36797 1.20585 3.33985L2.38205 3.12423L2.58125 4.20231L1.40504 4.41792V4.4273ZM5.04748 4.9804C4.93365 5.14914 4.75343 5.26164 4.55423 5.28976C4.35504 5.32726 4.14636 5.28976 3.97562 5.16789C3.80488 5.04602 3.69105 4.87728 3.66259 4.68041L3.21678 2.29927C3.17883 2.1024 3.21678 1.89616 3.34009 1.72742C3.4634 1.55867 3.63414 1.44618 3.83333 1.41806C4.03253 1.38993 4.24121 1.41806 4.41195 1.53993C4.58269 1.6618 4.69652 1.83054 4.72497 2.0274L5.17079 4.40855C5.20873 4.60542 5.17079 4.81166 5.04748 4.9804ZM7.02995 4.84916C6.61259 4.92415 6.2142 4.65229 6.13831 4.23981L5.6925 1.85866C5.65455 1.6618 5.6925 1.45555 5.81581 1.28681C5.93912 1.11807 6.10986 1.00557 6.30905 0.97745C6.35648 0.968076 6.40391 0.958701 6.45134 0.958701C6.81179 0.958701 7.14378 1.21181 7.21018 1.57742L7.656 3.95857C7.73188 4.37105 7.4568 4.76478 7.03944 4.83978L7.02995 4.84916ZM9.82818 2.81487C9.78075 2.87112 9.72384 2.91799 9.64796 2.92736L8.47175 3.14298L8.27256 2.0649L9.44876 1.84929C9.60053 1.82116 9.74281 1.92428 9.77127 2.07428L9.87561 2.618C9.89458 2.693 9.87561 2.75862 9.82818 2.82424V2.81487ZM26.1528 4.12731L24.9955 3.74295C25.0524 3.39609 24.9955 3.04923 24.8438 2.72112C24.6351 2.30864 24.2841 1.99928 23.8383 1.84929C23.3735 1.68992 22.8803 1.74617 22.4724 1.95241C22.2732 1.53993 21.9222 1.20244 21.4574 1.05245C21.0211 0.902453 20.5468 0.939952 20.12 1.13682C19.7975 1.29619 19.5414 1.53993 19.3706 1.84929L18.2134 1.46493C17.9004 1.36181 17.5494 1.38056 17.2553 1.53055C16.9518 1.67117 16.7242 1.93366 16.6198 2.24302L16.4396 2.768C16.3352 3.07736 16.3542 3.42422 16.506 3.71483C16.6578 4.00544 16.9139 4.23981 17.2269 4.34293L18.3841 4.72729C18.3272 5.07415 18.3841 5.42101 18.5359 5.74912C18.7446 6.1616 19.0955 6.47096 19.5414 6.62095C19.7311 6.68658 19.9208 6.7147 20.101 6.7147C20.3666 6.7147 20.6322 6.65845 20.8693 6.53658C20.8788 6.53658 20.8883 6.51783 20.8978 6.51783C21.097 6.93031 21.4479 7.2678 21.9127 7.41779C22.1024 7.48342 22.2922 7.51154 22.4724 7.51154C23.0984 7.51154 23.6865 7.17405 23.9995 6.62095L25.1568 7.00531C25.2896 7.05218 25.4224 7.07093 25.5647 7.07093C25.7544 7.07093 25.9441 7.02406 26.1148 6.93969C26.4184 6.79907 26.646 6.53658 26.7503 6.22722L26.9306 5.70224C27.1582 5.0554 26.8073 4.3523 26.1528 4.12731ZM18.6687 3.78983L17.5399 3.41484C17.4735 3.38672 17.4166 3.33985 17.3787 3.27422C17.3407 3.2086 17.3407 3.13361 17.3597 3.05861L17.5399 2.53363C17.5684 2.46801 17.6158 2.41176 17.6822 2.37426C17.7486 2.33677 17.8245 2.33677 17.9004 2.35551L19.0291 2.7305L18.6687 3.77108V3.78983ZM21.6187 2.92736L20.8314 5.21477C20.765 5.41163 20.6227 5.56163 20.4425 5.646C20.2528 5.73974 20.0536 5.74912 19.8544 5.68349C19.6552 5.61787 19.5034 5.47725 19.418 5.29914C19.3232 5.11164 19.3137 4.91478 19.3801 4.71791L20.1674 2.43051C20.2338 2.23365 20.3761 2.08365 20.5563 1.99928C20.6606 1.94303 20.784 1.92428 20.8978 1.92428C20.9832 1.92428 21.0685 1.94303 21.1444 1.96178C21.5428 2.09303 21.761 2.52426 21.6187 2.91799V2.92736ZM23.9995 3.73358L23.2122 6.02098C23.1458 6.21785 23.0036 6.36784 22.8233 6.45221C22.6336 6.54596 22.4344 6.55533 22.2352 6.48971C21.8368 6.35846 21.6187 5.92723 21.761 5.5335L22.5483 3.2461C22.6147 3.04923 22.7569 2.89924 22.9372 2.81487C23.1174 2.7305 23.3261 2.71175 23.5253 2.77737C23.7245 2.84299 23.8762 2.98361 23.9616 3.16173C24.0565 3.34922 24.0659 3.54609 23.9995 3.74295V3.73358ZM26.0105 5.39288L25.8302 5.91786C25.8018 5.98348 25.7544 6.03973 25.688 6.07723C25.6216 6.11473 25.5457 6.11473 25.4698 6.09598L24.341 5.72099L24.7015 4.68041L25.8302 5.0554C25.9725 5.10227 26.0579 5.26164 26.0105 5.40226V5.39288ZM5.67352 8.05527C5.19925 7.70841 4.62063 7.57716 4.04202 7.67091C3.4634 7.76465 2.95118 8.07401 2.6097 8.54274C2.25874 9.01147 2.12594 9.58332 2.2208 10.1552L5.00954 27.5825C5.04748 27.8169 5.25616 27.9856 5.4933 27.9856C5.52176 27.9856 5.54073 27.9856 5.56918 27.9856C5.83478 27.9388 6.015 27.695 5.97706 27.4325L4.30761 16.9893L6.71693 16.6143L8.47175 27.5919C8.51918 27.8544 8.7658 28.0325 9.0314 27.995C9.29699 27.9481 9.47722 27.7044 9.43927 27.4419L6.56516 9.4802C6.47031 8.90835 6.15729 8.40213 5.68301 8.06464L5.67352 8.05527ZM3.17883 10.0052C3.13141 9.68644 3.20729 9.36771 3.397 9.10522C3.58671 8.84273 3.87128 8.67399 4.19378 8.62712C4.51629 8.58024 4.8388 8.65524 5.10439 8.84273C5.36999 9.03022 5.54073 9.31146 5.58815 9.6302L6.17626 13.2769L3.76694 13.6519L3.18832 10.0052H3.17883ZM4.14636 16.033L3.9187 14.6081L6.32803 14.2331L6.55568 15.6581L4.14636 16.033ZM19.8733 13.4457V14.8893C19.8733 15.1518 19.6552 15.3674 19.3896 15.3674C19.124 15.3674 18.9058 15.1518 18.9058 14.8893V13.4457C18.9058 13.1832 19.124 12.9676 19.3896 12.9676C19.6552 12.9676 19.8733 13.1832 19.8733 13.4457ZM19.8733 16.3237V17.7673C19.8733 18.0298 19.6552 18.2454 19.3896 18.2454C19.124 18.2454 18.9058 18.0298 18.9058 17.7673V16.3237C18.9058 16.0612 19.124 15.8455 19.3896 15.8455C19.6552 15.8455 19.8733 16.0612 19.8733 16.3237ZM16.5914 13.4457V14.8893C16.5914 15.1518 16.3732 15.3674 16.1076 15.3674C15.842 15.3674 15.6238 15.1518 15.6238 14.8893V13.4457C15.6238 13.1832 15.842 12.9676 16.1076 12.9676C16.3732 12.9676 16.5914 13.1832 16.5914 13.4457ZM16.5914 16.3237V17.7673C16.5914 18.0298 16.3732 18.2454 16.1076 18.2454C15.842 18.2454 15.6238 18.0298 15.6238 17.7673V16.3237C15.6238 16.0612 15.842 15.8455 16.1076 15.8455C16.3732 15.8455 16.5914 16.0612 16.5914 16.3237ZM24.2746 8.8896C23.7055 8.75836 23.1079 8.84273 22.6147 9.14272C22.1119 9.4427 21.761 9.92081 21.6187 10.4833L21.3626 11.5332C20.395 10.6895 19.1335 10.1833 17.7486 10.1833C16.9613 10.1833 16.2024 10.352 15.5195 10.652V5.4585C15.5195 4.25856 14.533 3.2836 13.3189 3.2836C12.1047 3.2836 11.1182 4.25856 11.1182 5.4585V27.5075C11.1182 27.77 11.3364 27.9856 11.602 27.9856C11.8676 27.9856 12.0857 27.77 12.0857 27.5075V12.5457H13.1955C12.5885 13.4175 12.2375 14.4675 12.2375 15.6018C12.2375 17.4111 13.1386 19.0142 14.5235 19.9985V27.5075C14.5235 27.77 14.7417 27.9856 15.0073 27.9856C15.2729 27.9856 15.491 27.77 15.491 27.5075V20.5516C16.174 20.8516 16.9233 21.0203 17.7201 21.0203C18.166 21.0203 18.6118 20.9641 19.0291 20.8516L17.4166 27.3857C17.3502 27.6482 17.5114 27.9106 17.777 27.9669C17.815 27.9763 17.8529 27.9856 17.8909 27.9856C18.109 27.9856 18.3082 27.8357 18.3651 27.62L20.1295 20.4578C21.2108 19.9329 22.0835 19.0704 22.6241 18.0111L23.2122 18.1517L20.9357 27.3763C20.8693 27.6388 21.0306 27.9013 21.2962 27.9575C21.3341 27.9669 21.3721 27.9763 21.41 27.9763C21.6282 27.9763 21.8274 27.8263 21.8843 27.6107L25.8682 11.4957C26.0105 10.9333 25.9156 10.3427 25.6121 9.85519C25.3085 9.35833 24.8248 9.01147 24.2557 8.87085L24.2746 8.8896ZM12.1047 5.4585C12.1047 4.79291 12.6549 4.24918 13.3283 4.24918C14.0018 4.24918 14.552 4.79291 14.552 5.4585V9.16147H12.1142V5.4585H12.1047ZM12.1047 11.5801V10.1364H14.5425V11.2051C14.3812 11.3176 14.2295 11.4489 14.0777 11.5801H12.1047ZM17.2553 20.036C17.0277 20.0079 16.8095 19.9704 16.5914 19.9141V19.211C16.5914 18.9485 16.3732 18.7329 16.1076 18.7329C15.842 18.7329 15.6238 18.9485 15.6238 19.211V19.5391C14.2105 18.7892 13.243 17.308 13.243 15.6018C13.243 13.8956 14.2105 12.4238 15.6238 11.6645V11.9926C15.6238 12.2551 15.842 12.4707 16.1076 12.4707C16.3732 12.4707 16.5914 12.2551 16.5914 11.9926V11.2895C16.8095 11.2333 17.0277 11.1864 17.2553 11.1676V20.036ZM19.8733 19.5391V19.211C19.8733 18.9485 19.6552 18.7329 19.3896 18.7329C19.124 18.7329 18.9058 18.9485 18.9058 19.211V19.9141C18.6877 19.9704 18.4695 20.0172 18.2418 20.036V11.1676C18.4695 11.1958 18.6877 11.2333 18.9058 11.2895V11.9926C18.9058 12.2551 19.124 12.4707 19.3896 12.4707C19.6552 12.4707 19.8733 12.2551 19.8733 11.9926V11.6645C21.2867 12.4144 22.2542 13.8956 22.2542 15.5924C22.2542 17.2892 21.2867 18.7704 19.8733 19.5204V19.5391ZM23.4684 17.233L23.0131 17.1205C23.1458 16.6611 23.2217 16.183 23.2312 15.6862L23.8193 15.8268L23.4684 17.233ZM24.9386 11.2895L24.047 14.8893L23.1458 14.6737C22.9941 13.83 22.6431 13.0519 22.1499 12.3863L22.5672 10.7176C22.6431 10.4083 22.8423 10.1364 23.1174 9.97706C23.3925 9.80831 23.7245 9.76144 24.0375 9.83644C24.3505 9.91144 24.6256 10.1083 24.7868 10.3802C24.9576 10.652 25.005 10.9801 24.9291 11.2895H24.9386Z" fill="white"/>
</svg>
