<svg width="23" height="23" viewBox="0 0 23 23" fill="none" xmlns="http://www.w3.org/2000/svg">
<path fill-rule="evenodd" clip-rule="evenodd" d="M0 11.5C0 5.15086 5.15086 0 11.5 0C17.8491 0 23 5.15086 23 11.5C23 17.8491 17.8491 23 11.5 23C5.15086 23 0 17.8491 0 11.5ZM11.5 1.76923C6.12798 1.76923 1.76923 6.12798 1.76923 11.5C1.76923 16.872 6.12798 21.2308 11.5 21.2308C16.872 21.2308 21.2308 16.872 21.2308 11.5C21.2308 6.12798 16.872 1.76923 11.5 1.76923Z" fill="#00D1FF"/>
<path fill-rule="evenodd" clip-rule="evenodd" d="M17.3892 11.5003C17.3892 11.9889 16.9932 12.3849 16.5046 12.3849H6.49635C6.00779 12.3849 5.61173 11.9889 5.61173 11.5003C5.61173 11.0117 6.00779 10.6157 6.49635 10.6157H16.5046C16.9932 10.6157 17.3892 11.0117 17.3892 11.5003Z" fill="#00D1FF"/>
</svg>
