<svg width="15" height="16" viewBox="0 0 15 16" fill="none" xmlns="http://www.w3.org/2000/svg">
<path d="M6.36992 0.500015C5.36434 0.500472 4.37315 0.738954 3.47736 1.19597C2.58157 1.65298 1.80661 2.31556 1.21583 3.12953C0.625044 3.94351 0.235206 4.88577 0.0781799 5.87931C-0.0788462 6.87285 0.0013968 7.88946 0.31235 8.84604C0.623304 9.80262 1.15614 10.672 1.86731 11.3832C2.57847 12.0943 3.44778 12.627 4.40417 12.9377C5.36056 13.2485 6.37688 13.3284 7.37006 13.171C8.36325 13.0136 9.3051 12.6233 10.1186 12.0321L13.2925 15.207C13.4801 15.3946 13.7345 15.5 13.9998 15.5C14.2651 15.5 14.5195 15.3946 14.707 15.207C14.8946 15.0193 15 14.7648 15 14.4995C15 14.2341 14.8946 13.9796 14.707 13.792L11.5331 10.6171C12.2249 9.66596 12.6399 8.54175 12.7321 7.36911C12.8243 6.19647 12.5901 5.02119 12.0554 3.97355C11.5207 2.92591 10.7065 2.04682 9.70299 1.43371C8.69946 0.820606 7.54581 0.497434 6.36992 0.500015ZM6.36992 11.2496C5.50492 11.2496 4.65935 10.993 3.94013 10.5123C3.22091 10.0316 2.66035 9.34834 2.32933 8.54895C1.99831 7.74955 1.9117 6.86992 2.08046 6.02128C2.24921 5.17265 2.66574 4.39313 3.27739 3.7813C3.88903 3.16947 4.66831 2.7528 5.51669 2.584C6.36506 2.4152 7.24443 2.50183 8.04358 2.83295C8.84273 3.16407 9.52578 3.72481 10.0063 4.44424C10.4869 5.16368 10.7434 6.00951 10.7434 6.87477C10.7421 8.03464 10.2809 9.14663 9.46098 9.96678C8.64108 10.7869 7.52943 11.2483 6.36992 11.2496Z" fill="white"/>
</svg>
