<svg width="32" height="29" viewBox="0 0 32 29" fill="none" xmlns="http://www.w3.org/2000/svg">
<path d="M23.8594 1.72606L18.9307 3.88329C18.5428 4.05307 18.3654 4.51057 18.5362 4.90076L19.1557 6.31617L17.0438 7.24054L16.4243 5.82513C16.2535 5.43494 15.7971 5.25486 15.4092 5.42465L9.07086 8.19886C7.8032 8.75371 6.73378 9.56821 5.86856 10.5456C5.19169 9.36494 3.732 8.84603 2.46433 9.40088C1.1054 9.99567 0.486678 11.5914 1.08498 12.9584C1.56496 14.055 2.68653 14.6642 3.81565 14.5589C3.37621 16.4469 3.50386 18.4848 4.34104 20.3975C6.39379 25.0875 11.8492 27.2398 16.5117 25.1991C21.1741 23.1583 23.2943 17.6903 21.2415 13.0004C21.1422 12.7734 21.0419 12.5651 20.9366 12.3589L26.7991 8.02133C27.0901 7.80278 27.1907 7.41838 27.0456 7.08685L24.8745 2.12655C24.7037 1.73635 24.2473 1.55628 23.8594 1.72606ZM14.9623 21.6593C12.2445 22.8488 9.06032 21.5926 7.86372 18.8587C6.66711 16.1248 7.90456 12.9333 10.6224 11.7438C13.3403 10.5542 16.5245 11.8104 17.7211 14.5443C18.9177 17.2782 17.6802 20.4697 14.9623 21.6593ZM2.49208 12.3425C2.23535 11.7559 2.49818 11.0726 3.08384 10.8163C3.6695 10.5599 4.34869 10.8279 4.60654 11.417C4.86439 12.0061 4.60044 12.6869 4.01478 12.9432C3.42912 13.1996 2.74993 12.9316 2.49208 12.3425Z" fill="#F9F9F9"/>
<path d="M14.5068 20.2247C16.5629 19.3248 17.5232 16.9811 16.6517 14.9899C15.7801 12.9988 13.4069 12.1142 11.3508 13.0141C9.29471 13.914 8.33443 16.2577 9.20594 18.2489C10.0774 20.24 12.4507 21.1246 14.5068 20.2247Z" fill="#28B6F6"/>
</svg>
