<svg width="17" height="17" viewBox="0 0 17 17" fill="none" xmlns="http://www.w3.org/2000/svg">
<path d="M16.1288 4.67442C15.306 3.03352 13.9791 1.70259 12.3433 0.877182H12.2736C11.1074 0.298432 9.82393 -0.00163485 8.52335 6.69902e-06C6.2713 0.00247302 4.11093 0.897723 2.51431 2.49179C0.917821 4.085 0.0138538 6.24715 6.6988e-06 8.50617C-0.0016323 9.81082 0.297511 11.0981 0.874475 12.268C0.871197 12.2911 0.871197 12.3149 0.874475 12.3379C1.70797 13.9854 3.05121 15.318 4.70342 16.1352H4.77308C6.90722 17.1809 9.37978 17.2828 11.5926 16.4163C13.8046 15.5506 15.5543 13.7947 16.4181 11.5758C17.2819 9.35618 17.1803 6.87597 16.1378 4.73522C16.137 4.71467 16.1337 4.69415 16.1288 4.67442ZM8.52335 1.27179C9.40191 1.27343 10.2731 1.43703 11.0935 1.75436C11.091 1.93111 11.1607 2.10209 11.2861 2.22788C11.4065 2.35448 11.5745 2.42436 11.7491 2.42025C11.9007 2.41861 12.0458 2.3627 12.1597 2.26241C12.5023 2.46711 12.8293 2.69565 13.1391 2.94639L2.98071 13.1362C2.73075 12.8254 2.50292 12.4974 2.29884 12.1538C2.52997 11.908 2.52997 11.5232 2.29884 11.2774C2.17427 11.1516 2.00382 11.0818 1.82678 11.0842C0.975266 8.86794 1.26538 6.37194 2.60371 4.41219C3.94122 2.45151 6.15486 1.27747 8.52335 1.27179ZM8.52335 15.7406C7.64479 15.7389 6.77362 15.5753 5.95324 15.258C5.9557 15.0812 5.88604 14.9102 5.76064 14.7845C5.51559 14.5534 5.13205 14.5534 4.88699 14.7845C4.54442 14.5798 4.21742 14.3512 3.90762 14.1005L14.066 3.87616C14.3159 4.18692 14.5438 4.51494 14.7478 4.85857C14.5167 5.10438 14.5167 5.48911 14.7478 5.73492C14.8683 5.86235 15.0363 5.93222 15.2109 5.92811C16.0624 8.14357 15.7731 10.637 14.4372 12.597C13.1014 14.557 10.8903 15.7324 8.52324 15.7408L8.52335 15.7406ZM14.5381 5.98071C14.7938 6.23721 14.7938 6.65318 14.5381 6.9105L13.9521 7.4983V7.49748C13.6964 7.75398 13.2817 7.75398 13.0251 7.49748C12.7694 7.24098 12.7694 6.82501 13.0251 6.56851L13.6111 5.98071C13.8668 5.72421 14.2815 5.72421 14.5381 5.98071ZM9.29292 11.2421C9.54863 11.4986 9.54863 11.9145 9.29292 12.1719L8.70693 12.7597V12.7588C8.45122 13.0154 8.03654 13.0154 7.78001 12.7588C7.5243 12.5023 7.5243 12.0864 7.78001 11.8299L8.366 11.2421C8.62417 11.002 9.02573 11.0094 9.27488 11.2593L9.29292 11.2421ZM11.041 9.48857C11.2967 9.74507 11.2967 10.161 11.041 10.4175L10.455 10.9963C10.3329 11.1204 10.1657 11.1903 9.99199 11.1895C9.81743 11.1936 9.64942 11.1237 9.52895 10.9963C9.40356 10.8746 9.33308 10.7069 9.33308 10.5318C9.33308 10.3567 9.40356 10.189 9.52895 10.0673L10.1059 9.48859C10.3665 9.23704 10.7812 9.24442 11.032 9.50586L11.041 9.48857ZM12.7891 7.73506V7.73424C12.9145 7.85673 12.985 8.02444 12.985 8.19954C12.985 8.37463 12.9145 8.54152 12.7891 8.66401L12.2031 9.25181H12.2039C12.081 9.37512 11.9138 9.44418 11.7401 9.44418C11.5672 9.44089 11.4016 9.37183 11.2771 9.25181C11.0213 8.99449 11.0213 8.57852 11.2771 8.32202L11.863 7.73422C11.9851 7.61337 12.1515 7.54596 12.3236 7.54761C12.4957 7.54925 12.6605 7.61913 12.7809 7.74326L12.7891 7.73506ZM7.54398 12.9964V12.9956C7.79969 13.2529 7.79969 13.6689 7.54398 13.9254L6.958 14.5132H6.95882C6.83424 14.6349 6.6687 14.7039 6.49496 14.7056C6.32203 14.7023 6.15648 14.6332 6.03192 14.5132C5.77621 14.2559 5.77621 13.8399 6.03192 13.5834L6.6179 12.9956C6.87689 12.7638 7.27273 12.7753 7.51778 13.0219L7.54398 12.9964ZM4.26577 9.26907C4.01006 9.01257 4.01006 8.5966 4.26577 8.33928L4.85176 7.75148V7.7523C4.97305 7.62159 5.14188 7.54596 5.31973 7.54267C5.49758 7.53938 5.66887 7.60926 5.79507 7.73504C5.92046 7.86164 5.99012 8.03346 5.98684 8.21184C5.98356 8.39024 5.90816 8.55958 5.77867 8.68126L5.19269 9.26906C4.93698 9.52557 4.5223 9.52557 4.26577 9.26907ZM6.01387 7.51556H6.01469C5.8893 7.39307 5.81882 7.22536 5.81882 7.05026C5.81882 6.87517 5.8893 6.70827 6.01469 6.58579L6.59166 6.00704C6.84737 5.74807 7.26368 5.74561 7.52267 6.00293C7.78083 6.25943 7.78247 6.67704 7.52677 6.93682L6.94078 7.51557C6.81867 7.63971 6.65148 7.70876 6.47774 7.70794C6.30481 7.70712 6.14008 7.63395 6.02288 7.50653L6.01387 7.51556ZM7.76197 5.76205L7.76279 5.76123C7.50708 5.50472 7.50708 5.08876 7.76279 4.83226L8.34878 4.24446C8.60694 4.00277 9.00933 4.01016 9.25929 4.2609C9.50843 4.51081 9.51582 4.91447 9.27486 5.17423L8.68888 5.76203L8.68969 5.76121C8.56676 5.88452 8.39958 5.9544 8.22584 5.9544C8.05455 5.94618 7.89311 5.87384 7.7718 5.75299L7.76197 5.76205ZM9.51089 4.00772C9.25518 3.75121 9.25518 3.33525 9.51089 3.07793L10.0969 2.49013V2.49095C10.2182 2.36024 10.387 2.28461 10.5648 2.28132C10.7427 2.27803 10.914 2.34791 11.0402 2.47369C11.1656 2.60029 11.2352 2.77211 11.232 2.95049C11.2287 3.12889 11.1533 3.29823 11.0238 3.41991L10.4378 4.00771C10.1821 4.26421 9.76742 4.26422 9.51089 4.00772ZM2.51684 11.0234L2.51766 11.0226C2.26195 10.7661 2.26195 10.3501 2.51766 10.0936L3.10364 9.50583C3.22494 9.37512 3.39376 9.29948 3.57161 9.29702C3.74946 9.29373 3.92075 9.36278 4.04695 9.48939C4.17234 9.61517 4.242 9.78699 4.23872 9.96537C4.23545 10.1446 4.16005 10.3139 4.02974 10.4356L3.44375 11.0234L3.44457 11.0226C3.32 11.1443 3.15445 11.2141 2.98071 11.2158C2.80615 11.2166 2.63733 11.1508 2.50865 11.0316L2.51684 11.0234Z" fill="white"/>
</svg>
