<svg width="9" height="10" viewBox="0 0 9 10" fill="none" xmlns="http://www.w3.org/2000/svg">
<path d="M8.14269 2.88431C7.72728 2.0559 7.05743 1.38397 6.23156 0.967263H6.19639C5.60762 0.675079 4.95965 0.523589 4.30305 0.524417C3.16609 0.525663 2.07542 0.977633 1.26936 1.78241C0.463366 2.58674 0.00699418 3.67831 3.38192e-06 4.81879C-0.000824074 5.47745 0.150199 6.12735 0.441483 6.71799C0.439828 6.72961 0.439828 6.74165 0.441483 6.75327C0.862275 7.585 1.54041 8.25776 2.37454 8.67032H2.40971C3.48714 9.19825 4.73542 9.24971 5.85257 8.81226C6.9693 8.37523 7.85268 7.48872 8.28876 6.36853C8.72486 5.24792 8.67355 3.99578 8.14726 2.91501C8.14684 2.90464 8.14518 2.89428 8.14269 2.88431ZM4.30305 1.16648C4.7466 1.16731 5.18641 1.2499 5.60059 1.41011C5.59935 1.49934 5.63451 1.58566 5.69782 1.64917C5.75864 1.71308 5.84346 1.74836 5.93159 1.74629C6.00813 1.74546 6.08137 1.71723 6.13887 1.6666C6.31182 1.76995 6.47691 1.88533 6.63331 2.01191L1.50482 7.15628C1.37863 6.99939 1.26361 6.83379 1.16058 6.66031C1.27726 6.53621 1.27726 6.34197 1.16058 6.21787C1.09769 6.15437 1.01163 6.1191 0.922259 6.12034C0.492367 5.00143 0.638835 3.74132 1.3145 2.75193C1.98974 1.76207 3.10731 1.16935 4.30305 1.16648ZM4.30305 8.4711C3.85951 8.47027 3.41969 8.38768 3.00552 8.22747C3.00676 8.13824 2.97159 8.05192 2.90829 7.98841C2.78457 7.87178 2.59094 7.87178 2.46722 7.98841C2.29427 7.88507 2.12918 7.76969 1.97278 7.6431L7.10127 2.48131C7.22746 2.6382 7.34248 2.8038 7.44551 2.97728C7.32883 3.10138 7.32883 3.29562 7.44551 3.41971C7.50634 3.48404 7.59116 3.51932 7.67928 3.51725C8.10917 4.63573 7.96312 5.89457 7.2887 6.88407C6.61428 7.87356 5.49799 8.46696 4.30299 8.47121L4.30305 8.4711ZM7.3396 3.5438C7.4687 3.6733 7.4687 3.8833 7.3396 4.01321L7.04376 4.30996V4.30955C6.91467 4.43905 6.70531 4.43905 6.5758 4.30955C6.44671 4.18005 6.44671 3.97005 6.5758 3.84056L6.87164 3.5438C7.00074 3.41431 7.21009 3.41431 7.3396 3.5438ZM4.69157 6.20003C4.82067 6.32952 4.82067 6.53953 4.69157 6.66944L4.39573 6.96619V6.96578C4.26664 7.09527 4.05728 7.09527 3.92777 6.96578C3.79868 6.83628 3.79868 6.62628 3.92777 6.49678L4.22361 6.20003C4.35395 6.07884 4.55668 6.08257 4.68246 6.20874L4.69157 6.20003ZM5.57411 5.31476C5.7032 5.44426 5.7032 5.65426 5.57411 5.78376L5.27827 6.07594C5.21662 6.13861 5.13221 6.17389 5.0445 6.17347C4.95637 6.17555 4.87155 6.14027 4.81073 6.07594C4.74743 6.01452 4.71185 5.92985 4.71185 5.84145C4.71185 5.75305 4.74743 5.66838 4.81073 5.60696L5.10202 5.31477C5.23359 5.18777 5.44295 5.1915 5.56956 5.32349L5.57411 5.31476ZM6.45664 4.42949V4.42908C6.51995 4.49092 6.55553 4.57559 6.55553 4.66399C6.55553 4.75238 6.51994 4.83664 6.45664 4.89848L6.1608 5.19523H6.16122C6.09915 5.25749 6.01475 5.29235 5.92704 5.29235C5.83973 5.29069 5.75615 5.25583 5.69327 5.19523C5.56417 5.06532 5.56417 4.85532 5.69327 4.72582L5.98911 4.42907C6.05076 4.36806 6.13475 4.33403 6.22163 4.33486C6.30852 4.33569 6.39169 4.37096 6.45251 4.43363L6.45664 4.42949ZM3.80861 7.08572V7.08531C3.93771 7.21522 3.93771 7.42522 3.80861 7.55471L3.51278 7.85147H3.51319C3.4503 7.91289 3.36672 7.94775 3.27901 7.94859C3.19171 7.94692 3.10813 7.91206 3.04524 7.85147C2.91614 7.72156 2.91614 7.51155 3.04524 7.38206L3.34108 7.08531C3.47183 6.96826 3.67167 6.97407 3.79538 7.09859L3.80861 7.08572ZM2.15359 5.20394C2.0245 5.07445 2.0245 4.86445 2.15359 4.73454L2.44943 4.43778V4.4382C2.51067 4.37221 2.5959 4.33402 2.68569 4.33236C2.77547 4.3307 2.86195 4.36598 2.92566 4.42948C2.98897 4.4934 3.02414 4.58014 3.02248 4.6702C3.02083 4.76026 2.98276 4.84575 2.91739 4.90719L2.62155 5.20394C2.49245 5.33344 2.2831 5.33344 2.15359 5.20394ZM3.03613 4.31868H3.03654C2.97324 4.25684 2.93766 4.17217 2.93766 4.08377C2.93766 3.99537 2.97324 3.91112 3.03654 3.84928L3.32783 3.55709C3.45692 3.42635 3.6671 3.42511 3.79785 3.55502C3.92819 3.68452 3.92901 3.89535 3.79992 4.0265L3.50408 4.31868C3.44243 4.38135 3.35803 4.41622 3.27031 4.4158C3.18301 4.41539 3.09985 4.37845 3.04068 4.31412L3.03613 4.31868ZM3.91866 3.43341L3.91908 3.43299C3.78998 3.3035 3.78998 3.0935 3.91908 2.964L4.21492 2.66725C4.34525 2.54523 4.5484 2.54896 4.67459 2.67555C4.80037 2.80172 4.8041 3.0055 4.68245 3.13665L4.38662 3.4334L4.38703 3.43299C4.32497 3.49524 4.24056 3.53052 4.15285 3.53052C4.06637 3.52637 3.98487 3.48985 3.92363 3.42884L3.91866 3.43341ZM4.80161 2.54773C4.67252 2.41823 4.67252 2.20823 4.80161 2.07832L5.09745 1.78157V1.78198C5.15869 1.71599 5.24392 1.67781 5.33371 1.67615C5.42349 1.67449 5.50997 1.70977 5.57368 1.77327C5.63699 1.83718 5.67216 1.92393 5.6705 2.01398C5.66885 2.10405 5.63078 2.18954 5.56541 2.25097L5.26957 2.54773C5.14047 2.67722 4.93112 2.67722 4.80161 2.54773ZM1.27064 6.08964L1.27105 6.08922C1.14195 5.95972 1.14195 5.74972 1.27105 5.62023L1.56689 5.32347C1.62812 5.25748 1.71336 5.2193 1.80314 5.21805C1.89293 5.21639 1.97941 5.25126 2.04312 5.31517C2.10642 5.37867 2.14159 5.46542 2.13994 5.55548C2.13828 5.64595 2.10022 5.73144 2.03443 5.79288L1.73859 6.08963L1.73901 6.08922C1.67612 6.15064 1.59254 6.18592 1.50483 6.18675C1.4167 6.18717 1.33147 6.15396 1.2665 6.09378L1.27064 6.08964Z" fill="white"/>
</svg>
