<svg width="28" height="28" viewBox="0 0 28 28" fill="none" xmlns="http://www.w3.org/2000/svg">
<path d="M27.8742 16.7747C27.8369 16.5409 27.6407 16.3631 27.3977 16.3631H26.9679V7.84131C26.9679 6.54105 25.9027 5.47465 24.604 5.47465H24.5199C23.9967 5.47465 23.5108 5.65238 23.1184 5.94237V4.81984C23.1184 3.51959 22.0532 2.45319 20.7544 2.45319H20.6703C20.1471 2.45319 19.6612 2.63092 19.2688 2.92091V2.369C19.2688 1.06874 18.213 0.00233859 16.9049 0.00233859H16.8208C15.522 0.00233859 14.4569 1.06874 14.4569 2.369V2.92091C14.0644 2.63092 13.5879 2.45319 13.0553 2.45319H12.9619C12.8778 2.35964 12.803 2.2661 12.719 2.18191C9.80375 -0.727303 5.0759 -0.727303 2.17939 2.18191C-0.726463 5.09112 -0.726463 9.82444 2.17939 12.7336C2.88016 13.4352 3.71174 13.9778 4.62741 14.3426C4.44054 14.7729 4.31907 15.3996 4.59938 16.1199C4.7115 16.4099 4.90772 16.6906 5.17868 16.9618L12.0369 23.7344C11.5884 24.1179 11.2987 24.6792 11.2987 25.3059V27.5136C11.2987 27.7755 11.5136 28 11.7846 28H26.0242C26.2858 28 26.5101 27.7848 26.5101 27.5136V25.3059C26.5101 24.7447 26.2858 24.2302 25.9214 23.856C26.2765 23.6689 26.5848 23.407 26.8558 23.0702C28.4722 21.0403 27.9116 16.9431 27.8836 16.7654L27.8742 16.7747ZM11.8874 2.73382C11.1305 3.1267 10.6166 3.91247 10.6166 4.8292V5.88624L10.4578 5.72722C10.2709 5.54013 9.96259 5.54013 9.77572 5.72722C9.58885 5.91431 9.58885 6.223 9.77572 6.41009L10.6166 7.25198V8.59901L4.00139 1.97611C4.2817 1.79838 4.58069 1.63936 4.87969 1.50839L5.96354 2.5935C6.05698 2.68705 6.17844 2.73382 6.30926 2.73382C6.44007 2.73382 6.55219 2.68705 6.65497 2.5935C6.84184 2.40641 6.84184 2.09772 6.65497 1.91063L5.91682 1.17164C7.98175 0.6665 10.2522 1.19035 11.9061 2.74317H11.8967L11.8874 2.73382ZM10.6166 14.2023V15.5867L9.54213 14.6045C9.90653 14.5016 10.2616 14.3613 10.6166 14.2023ZM3.20719 2.54673L10.6073 9.9554V11.3118L2.53445 3.22025C2.63723 3.09864 2.74 2.97703 2.86147 2.86478C2.97359 2.75253 3.09506 2.64963 3.21653 2.54673H3.20719ZM1.1516 5.90495L1.88974 6.64395C1.98318 6.73749 2.10464 6.78426 2.23545 6.78426C2.36626 6.78426 2.47839 6.73749 2.58116 6.64395C2.76804 6.45686 2.76804 6.14817 2.58116 5.96108L1.49731 4.87597C1.62812 4.57663 1.77762 4.28664 1.95515 4.00601L10.6166 12.6775V13.1078C10.4204 13.2201 10.2242 13.3136 10.0187 13.3978L8.94414 12.3221C8.75727 12.135 8.44893 12.135 8.26206 12.3221C8.07519 12.5091 8.07519 12.8178 8.26206 13.0049L9.00021 13.7439C8.89743 13.772 8.79465 13.7907 8.69187 13.8094L8.48631 13.6223C7.95372 13.1265 7.25295 12.874 6.5989 12.9207C6.07566 12.9582 5.59914 13.1733 5.20671 13.5288C4.32842 13.2014 3.53421 12.7149 2.87082 12.0508C1.20766 10.3857 0.647045 8.04711 1.17029 5.90495H1.16094H1.1516ZM5.85142 16.279C5.67389 16.1012 5.56177 15.9422 5.49636 15.7832C5.18803 14.9787 5.70192 14.38 5.72995 14.3613C5.98223 14.0807 6.29057 13.931 6.65497 13.9029C7.06608 13.8749 7.48655 14.0339 7.83226 14.352L10.028 16.3631C10.299 16.6157 10.682 16.6812 11.0278 16.5315C11.3735 16.3819 11.579 16.0545 11.579 15.6803V4.81984C11.579 4.04343 12.2051 3.41669 12.9806 3.41669H13.0647C13.8402 3.41669 14.4662 4.04343 14.4662 4.81984V13.033C14.4662 13.2949 14.6811 13.5194 14.9521 13.5194C15.223 13.5194 15.4379 13.3043 15.4379 13.033V2.369C15.4379 1.59258 16.064 0.96584 16.8395 0.96584H16.9236C17.6991 0.96584 18.3251 1.59258 18.3251 2.369V13.0236C18.3251 13.2856 18.54 13.5101 18.811 13.5101C19.0819 13.5101 19.2968 13.2949 19.2968 13.0236V4.81984C19.2968 4.04343 19.9229 3.41669 20.6984 3.41669H20.7825C21.558 3.41669 22.184 4.04343 22.184 4.81984V13.033C22.184 13.2949 22.3989 13.5194 22.6699 13.5194C22.9408 13.5194 23.1557 13.3043 23.1557 13.033V7.84131C23.1557 7.0649 23.7818 6.43815 24.5573 6.43815H24.6414C25.4169 6.43815 26.0429 7.0649 26.0429 7.84131V16.3631H18.3064C17.4468 16.3631 16.7367 17.0647 16.7367 17.9347V23.2293H13.4291C13.2796 23.2293 13.1394 23.248 12.9899 23.276L5.90748 16.279H5.85142ZM12.2611 25.3153C12.2611 24.6979 12.7657 24.1928 13.3823 24.1928H14.8026C14.6157 24.5015 14.5036 24.8476 14.5036 25.2311V27.0365H12.2611V25.3153ZM25.529 27.0365H15.4566V25.2311C15.4566 24.6605 15.9238 24.1928 16.4938 24.1928H24.4078C25.0244 24.1928 25.529 24.6979 25.529 25.3153V27.0365ZM17.6524 23.2293V17.9347C17.6524 17.5979 17.9233 17.3267 18.2597 17.3267H26.9679C27.0613 18.365 27.1828 21.1058 26.0896 22.4716C25.7159 22.9393 25.2487 23.1825 24.6414 23.2386H17.6617L17.6524 23.2293ZM23.8565 25.6146C23.8565 25.8766 23.6416 26.1011 23.3706 26.1011H21.5393C21.2777 26.1011 21.0534 25.8859 21.0534 25.6146C21.0534 25.3434 21.2683 25.1282 21.5393 25.1282H23.3706C23.6323 25.1282 23.8565 25.3434 23.8565 25.6146ZM7.22493 3.8657C7.03805 3.67861 7.03805 3.36992 7.22493 3.18283C7.4118 2.99574 7.72013 2.99574 7.90701 3.18283L9.17773 4.45502C9.3646 4.64211 9.3646 4.95081 9.17773 5.13789C9.0843 5.23144 8.96283 5.27821 8.83202 5.27821C8.70121 5.27821 8.58909 5.23144 8.48631 5.13789L7.21558 3.8657H7.22493ZM5.12262 9.19769C5.02918 9.29124 4.90772 9.33801 4.77691 9.33801C4.6461 9.33801 4.53397 9.29124 4.43119 9.19769L3.16047 7.9255C2.9736 7.73841 2.9736 7.42972 3.16047 7.24263C3.34734 7.05554 3.65568 7.05554 3.84255 7.24263L5.11328 8.51482C5.30015 8.70191 5.30015 9.01061 5.11328 9.19769H5.12262ZM5.71127 10.4699C5.52439 10.2828 5.52439 9.97411 5.71127 9.78702C5.89814 9.59993 6.20648 9.59993 6.39335 9.78702L7.66407 11.0592C7.85095 11.2463 7.85095 11.555 7.66407 11.7421C7.57064 11.8356 7.44917 11.8824 7.31836 11.8824C7.18755 11.8824 7.07543 11.8356 6.97265 11.7421L5.70192 10.4699H5.71127Z" fill="white"/>
</svg>
