<svg width="10" height="11" viewBox="0 0 10 11" fill="none" xmlns="http://www.w3.org/2000/svg">
<path d="M2.26177 3.00879H1.20881C1.0928 3.00879 1 3.10516 1 3.22473V9.04378C1 9.07234 1.00892 9.09911 1.02499 9.12231L1.62642 9.94504C1.65141 9.97895 1.69245 10.0004 1.73529 10.0004C1.77812 10.0004 1.81738 9.98074 1.84415 9.94504L2.44559 9.12231C2.46165 9.09911 2.47057 9.07234 2.47057 9.04378V3.22473C2.47057 3.10516 2.37599 3.00879 2.26177 3.00879ZM2.20287 8.99917L1.73529 9.63808L1.2677 8.99917V3.27649H2.20109V8.99917H2.20287Z" fill="white" stroke="white" stroke-width="0.2"/>
<path d="M4.76763 3.00879H3.71467C3.60045 3.00879 3.50586 3.10516 3.50586 3.22473V9.04378C3.50586 9.07234 3.51478 9.09911 3.53085 9.12231L4.13228 9.94504C4.15727 9.97895 4.19831 10.0004 4.24115 10.0004C4.28398 10.0004 4.32324 9.98074 4.35001 9.94504L4.95145 9.12231C4.96751 9.09911 4.97643 9.07234 4.97643 9.04378V3.22473C4.97643 3.10516 4.88184 3.00879 4.76763 3.00879ZM4.70873 8.99917L4.24115 9.63808L3.77356 8.99917V3.27649H4.70695V8.99917H4.70873Z" fill="white" stroke="white" stroke-width="0.2"/>
<path d="M3.6471 1.84845C3.67744 1.79669 3.68637 1.73423 3.6703 1.67534L3.53824 1.17027C3.52218 1.11138 3.4847 1.06141 3.43294 1.03107C3.3794 1.00073 3.31872 0.991805 3.25983 1.00787L1.16997 1.55933C1.04861 1.59146 0.975443 1.71638 1.00757 1.83774L1.13963 2.3428C1.1664 2.44453 1.25921 2.51235 1.36093 2.51235C1.38056 2.51235 1.4002 2.51056 1.41983 2.50521L3.50968 1.95553C3.56858 1.93768 3.61676 1.90021 3.6471 1.84845ZM1.38949 2.23394L1.27705 1.8074L3.29017 1.27735L3.4026 1.70389L1.38949 2.23394Z" fill="white" stroke="white" stroke-width="0.2"/>
<path d="M7.18394 2.51124C7.28566 2.51124 7.37668 2.44342 7.40524 2.3417L7.5373 1.83663C7.56943 1.71528 7.49626 1.59035 7.3749 1.55822L5.28504 1.00854C5.16368 0.976419 5.03876 1.04959 5.00663 1.17095L4.87457 1.67601C4.8585 1.73491 4.86743 1.79559 4.89777 1.84913C4.92811 1.90088 4.97808 1.93836 5.03697 1.95442L7.12683 2.5041C7.14646 2.50946 7.16609 2.51124 7.18394 2.51124ZM5.25649 1.27803L7.2696 1.80808L7.15717 2.23462L5.14227 1.70457L5.25649 1.27803Z" fill="white" stroke="white" stroke-width="0.2"/>
<path d="M8.20466 5.28223C7.54076 5.28223 7 5.82298 7 6.48688C7 7.15078 7.54076 7.69154 8.20466 7.69154C8.86856 7.69154 9.40931 7.15078 9.40931 6.48688C9.40931 5.82298 8.86856 5.28223 8.20466 5.28223ZM7.2677 6.48688C7.2677 5.96933 7.68888 5.54993 8.20466 5.54993C8.47057 5.54993 8.70793 5.66236 8.87926 5.83905C8.31888 5.94256 7.89234 6.43334 7.89234 7.02229C7.89234 7.14543 7.91375 7.26679 7.95123 7.38457C7.5586 7.27214 7.2677 6.91521 7.2677 6.48688ZM8.25106 7.41848C8.19216 7.29356 8.16004 7.15971 8.16004 7.02229C8.16004 6.52436 8.55088 6.12102 9.05059 6.09068C9.1077 6.21026 9.14161 6.34411 9.14161 6.4851C9.14161 6.98659 8.74541 7.3935 8.25106 7.41848Z" fill="white" stroke="white" stroke-width="0.2"/>
<path d="M7.33851 7.78895C7.26534 7.78895 7.20466 7.84963 7.20466 7.9228V8.99917L6.73707 9.63808L6.26949 8.99917V3.27649H7.20287V5.05304C7.20287 5.12621 7.26355 5.18689 7.33672 5.18689C7.40989 5.18689 7.47057 5.12621 7.47057 5.05304V3.22473C7.47057 3.10516 7.37777 3.00879 7.26177 3.00879H6.20881C6.09459 3.00879 6 3.10516 6 3.22473V9.04378C6 9.07234 6.00892 9.09911 6.02499 9.12231L6.62642 9.94504C6.65141 9.97895 6.69245 10.0004 6.73529 10.0004C6.77812 10.0004 6.81738 9.98074 6.84415 9.94504L7.44559 9.12231C7.46165 9.09911 7.47057 9.07234 7.47057 9.04378V7.9228C7.47236 7.84963 7.41168 7.78895 7.33851 7.78895Z" fill="white" stroke="white" stroke-width="0.2"/>
</svg>
