<svg width="18" height="19" viewBox="0 0 18 19" fill="none" xmlns="http://www.w3.org/2000/svg">
<path d="M3.38319 4.79395H1.39439C1.17528 4.79395 1 4.97597 1 5.20182V16.1927C1 16.2466 1.01685 16.2972 1.04719 16.341L2.18317 17.8949C2.23036 17.959 2.30789 17.9994 2.38879 17.9994C2.46969 17.9994 2.54385 17.9624 2.59441 17.8949L3.73038 16.341C3.76072 16.2972 3.77757 16.2466 3.77757 16.1927V5.20182C3.77757 4.97597 3.59892 4.79395 3.38319 4.79395ZM3.27195 16.1084L2.38879 17.3152L1.50563 16.1084V5.29957H3.26858V16.1084H3.27195Z" fill="white" stroke="white" stroke-width="0.5"/>
<path d="M8.1161 4.79395H6.1273C5.91156 4.79395 5.73291 4.97597 5.73291 5.20182V16.1927C5.73291 16.2466 5.74976 16.2972 5.7801 16.341L6.91608 17.8949C6.96327 17.959 7.0408 17.9994 7.1217 17.9994C7.2026 17.9994 7.27676 17.9624 7.32732 17.8949L8.46329 16.341C8.49363 16.2972 8.51048 16.2466 8.51048 16.1927V5.20182C8.51048 4.97597 8.33183 4.79395 8.1161 4.79395ZM8.00486 16.1084L7.1217 17.3152L6.23854 16.1084V5.29957H8.00149V16.1084H8.00486Z" fill="white" stroke="white" stroke-width="0.5"/>
<path d="M5.99977 2.60253C6.05707 2.50477 6.07393 2.38679 6.04359 2.27555L5.79415 1.32161C5.76381 1.21037 5.69302 1.11598 5.59527 1.05868C5.49414 1.00138 5.37953 0.984521 5.2683 1.01486L1.32104 2.05645C1.09182 2.11712 0.953617 2.35308 1.01429 2.5823L1.26373 3.53625C1.3143 3.72839 1.48958 3.85648 1.68172 3.85648C1.7188 3.85648 1.75588 3.85311 1.79296 3.843L5.74021 2.80478C5.85145 2.77107 5.94246 2.70028 5.99977 2.60253ZM1.73565 3.33063L1.52329 2.525L5.3256 1.52386L5.53796 2.32949L1.73565 3.33063Z" fill="white" stroke="white" stroke-width="0.5"/>
<path d="M12.68 3.8545C12.8721 3.8545 13.044 3.7264 13.0979 3.53427L13.3474 2.58032C13.4081 2.3511 13.2699 2.11514 13.0406 2.05446L9.09338 1.01625C8.86416 0.95557 8.6282 1.09377 8.56752 1.32299L8.31808 2.27694C8.28774 2.38818 8.3046 2.50279 8.3619 2.60391C8.41921 2.70167 8.51359 2.77245 8.62483 2.80279L12.5721 3.84101C12.6092 3.85112 12.6462 3.8545 12.68 3.8545ZM9.03944 1.52524L12.8418 2.52638L12.6294 3.33201L8.82371 2.33087L9.03944 1.52524Z" fill="white" stroke="white" stroke-width="0.5"/>
<path d="M14.6078 9.08789C13.3539 9.08789 12.3325 10.1093 12.3325 11.3632C12.3325 12.6172 13.3539 13.6385 14.6078 13.6385C15.8618 13.6385 16.8832 12.6172 16.8832 11.3632C16.8832 10.1093 15.8618 9.08789 14.6078 9.08789ZM12.8381 11.3632C12.8381 10.3857 13.6337 9.59352 14.6078 9.59352C15.1101 9.59352 15.5584 9.80588 15.882 10.1396C14.8236 10.3351 14.0179 11.2621 14.0179 12.3745C14.0179 12.607 14.0584 12.8363 14.1292 13.0587C13.3876 12.8464 12.8381 12.1722 12.8381 11.3632ZM14.6955 13.1228C14.5842 12.8868 14.5236 12.634 14.5236 12.3745C14.5236 11.434 15.2618 10.6722 16.2056 10.6149C16.3135 10.8407 16.3775 11.0935 16.3775 11.3598C16.3775 12.307 15.6292 13.0756 14.6955 13.1228Z" fill="white" stroke="white" stroke-width="0.5"/>
<path d="M12.972 13.8226C12.8338 13.8226 12.7192 13.9372 12.7192 14.0754V16.1084L11.836 17.3152L10.9528 16.1084V5.29957H12.7158V8.65507C12.7158 8.79327 12.8304 8.90788 12.9686 8.90788C13.1068 8.90788 13.2214 8.79327 13.2214 8.65507V5.20182C13.2214 4.97597 13.0461 4.79395 12.827 4.79395H10.8382C10.6225 4.79395 10.4438 4.97597 10.4438 5.20182V16.1927C10.4438 16.2466 10.4607 16.2972 10.491 16.341L11.627 17.8949C11.6742 17.959 11.7517 17.9994 11.8326 17.9994C11.9135 17.9994 11.9877 17.9624 12.0383 17.8949L13.1742 16.341C13.2046 16.2972 13.2214 16.2466 13.2214 16.1927V14.0754C13.2248 13.9372 13.1102 13.8226 12.972 13.8226Z" fill="white" stroke="white" stroke-width="0.5"/>
</svg>
